<svg id="Capa_1" enable-background="new 0 0 488.471 488.471" height="512" viewBox="0 0 488.471 488.471" width="512" xmlns="http://www.w3.org/2000/svg">
    <g>
        <path d="m452.397 226.213c-8.08-34.748-24.984-67.245-48.895-93.959l-45.496 40.726c17.083 19.081 29.158 42.276 34.912 67.066.001 0 59.479-13.833 59.479-13.833z"/>
        <path d="m397.176 296.365c-3.999 28.144-15.865 54.574-34.307 76.458l47.011 39.235c25.828-30.619 42.442-67.678 48.06-107.136.001-.001-60.764-8.557-60.764-8.557z"/>
        <path d="m244.236 427.412c-84.165 0-152.647-68.482-152.647-152.647 0-73.711 52.532-135.376 122.118-149.561v57.973l91.588-91.588-91.589-91.589v63.496c-103.391 14.894-183.176 103.834-183.176 211.269 0 117.825 95.867 213.706 213.706 213.706 35.851 0 71.33-9.063 102.59-26.191l-29.367-53.546c-22.271 12.223-47.598 18.678-73.223 18.678z"/>
    </g>
</svg>